<svg xmlns="http://www.w3.org/2000/svg" xmlns:xlink="http://www.w3.org/1999/xlink" width="75" height="72" viewBox="0 0 75 72"><defs><path id="nssga" d="M1043.57 943.73c20.77-10.89 40.98.55 40.98.55"/><path id="nssgb" d="M1082.35 945.08l2.03-.57c.23-.06.36-.3.3-.53l-.64-1.97"/><path id="nssgc" d="M1058.25 958.38c0-3.31 2.7-6 6.03-6a6.01 6.01 0 0 1 6.02 6 6.01 6.01 0 1 1-12.05 0z"/><path id="nssgd" d="M1066.93 967.81h-5.29c-3.28 0-5.95 4.17-5.95 9.3v7.6c0 .6.21 1.19.62 1.63l2.2 2.3c.4.44.63 1.03.62 1.63v16.54c-.1 1.06.66 2 1.72 2.14h6.89a1.97 1.97 0 0 0 1.72-2.14v-16.54c-.01-.6.21-1.19.62-1.63l2.2-2.3c.4-.44.63-1.03.62-1.63v-7.6c-.02-5.15-2.69-9.3-5.97-9.3z"/><path id="nssge" d="M1031.58 958.38c0-3.31 2.7-6 6.03-6a6.01 6.01 0 0 1 6.02 6c0 3.31-2.7 6-6.03 6a6.01 6.01 0 0 1-6.02-6z"/><path id="nssgf" d="M1041.1 967.81h-7c-3.28 0-5.95 4.17-5.95 9.3v7.6c0 .6.21 1.19.62 1.63l2.2 2.3c.4.44.63 1.03.62 1.63v16.54c-.1 1.06.66 2 1.72 2.14h8.6a1.97 1.97 0 0 0 1.73-2.14v-16.54c-.01-.6.21-1.19.62-1.63l2.2-2.3c.4-.44.63-1.03.62-1.63v-7.6c-.02-5.15-2.68-9.3-5.97-9.3z"/><path id="nssgg" d="M1084.93 958.38c0-3.31 2.7-6 6.03-6a6.01 6.01 0 0 1 6.02 6 6.01 6.01 0 1 1-12.05 0z"/><path id="nssgh" d="M1094.46 967.81h-7c-3.3 0-5.96 4.17-5.96 9.3v7.6c0 .6.21 1.19.62 1.63l2.2 2.3c.4.44.63 1.03.62 1.63v16.54c-.1 1.06.66 2 1.72 2.14h8.6a1.97 1.97 0 0 0 1.73-2.14v-16.54c-.01-.6.21-1.19.62-1.63l2.2-2.3c.4-.44.63-1.03.62-1.63v-7.6c-.02-5.15-2.68-9.3-5.97-9.3z"/></defs><g><g transform="translate(-1027 -938)"><g><use fill="#fff" fill-opacity="0" stroke="#13d4c8" stroke-linecap="round" stroke-miterlimit="50" stroke-width="1.71" xlink:href="#nssga"/></g><g><use fill="#fff" fill-opacity="0" stroke="#13d4c8" stroke-linecap="round" stroke-miterlimit="50" stroke-width="1.71" xlink:href="#nssgb"/></g><g><use fill="#fff" fill-opacity="0" stroke="#13d4c8" stroke-dasharray="1.71 1.71" stroke-miterlimit="50" stroke-width=".6" xlink:href="#nssgc"/></g><g><use fill="#fff" fill-opacity="0" stroke="#13d4c8" stroke-dasharray="1.71 1.71" stroke-miterlimit="50" stroke-width=".6" xlink:href="#nssgd"/></g><g><use fill="#fff" fill-opacity="0" stroke="#13d4c8" stroke-miterlimit="50" stroke-width="1.71" xlink:href="#nssge"/></g><g><use fill="#fff" fill-opacity="0" stroke="#13d4c8" stroke-miterlimit="50" stroke-width="1.71" xlink:href="#nssgf"/></g><g><use fill="#fff" fill-opacity="0" stroke="#13d4c8" stroke-miterlimit="50" stroke-width="1.71" xlink:href="#nssgg"/></g><g><use fill="#fff" fill-opacity="0" stroke="#13d4c8" stroke-miterlimit="50" stroke-width="1.71" xlink:href="#nssgh"/></g></g></g></svg>