<svg xmlns="http://www.w3.org/2000/svg" xmlns:xlink="http://www.w3.org/1999/xlink" width="71" height="74" viewBox="0 0 71 74"><defs><path id="24ypa" d="M314.47 960.74a5.87 5.87 0 0 0-5.07 4.62"/><path id="24ypb" d="M369.96 965.39c-.56-2.74-2.99-4.7-5.8-4.68h-1.45"/><path id="24ypc" d="M343.4 963.06a5.03 5.03 0 0 1 1.57-6.06 5.1 5.1 0 0 1 6.29.13 5.03 5.03 0 0 1 1.33 6.11l-.17.32"/><path id="24ypd" d="M326.72 946.83c.06-.3.23-.57.48-.74l1.93-1.35c.2-.2.48-.33.77-.34l9.01 1.01 1.22-4.02-14.74-1.68c-.72-.04-1.34.51-1.39 1.23l-1.4 12.02 3.57-1.07z"/><path id="24ype" d="M329.9 944.4c-.27-.02-.55.05-.77.2l-1.93 1.49c-.27.18-.44.47-.48.79l-.57 5.13 4.2-1.3c.57-.12 1.13.22 1.26.78l2.79 9.2 4.56-15.14z"/><path id="24ypf" d="M317.6 960.2a.89.89 0 0 1 .08-.72l.98-1.59a.9.9 0 0 1 .51-.38l7.91-2.4a.9.9 0 0 1 .66 0l1.57.78c.22.11.39.3.46.54l2.18 7.08h1.54l.86-2.9-2.79-9.19c-.13-.56-.69-.9-1.25-.77l-4.16 1.24-3.56 1.08-8.2 2.52c-.54.2-.82.79-.63 1.33l2.05 6.73h2.82z"/><path id="24ypg" d="M329.76 956.47a.9.9 0 0 0-.45-.54l-1.58-.79a.9.9 0 0 0-.66 0l-7.9 2.4a.9.9 0 0 0-.51.4l-.98 1.58a.89.89 0 0 0-.09.72l1.03 3.36h13.3z"/><path id="24yph" d="M334.34 960.67l-.86 2.9h4.1l5.43-18.34c.1-.35.35-.63.68-.8l2.42-1.12c.3-.1.62-.1.91 0l11.36 3.37c.32.09.58.3.74.58l1.26 2.2c.17.3.21.65.11.98l-3.92 13.22h4.68l5.36-17.88a1.5 1.5 0 0 0-.9-1.9l-22.8-6.72a1.5 1.5 0 0 0-1.79 1.1l-1 3.37-1.21 4.02z"/><path id="24ypi" d="M360.4 949.35l-1.3-2.18c-.16-.29-.43-.5-.74-.6L347 943.22a1.3 1.3 0 0 0-.92 0l-2.38 1.2c-.33.15-.57.44-.68.79l-5.44 18.33h19.02l3.92-13.22c.09-.32.05-.67-.12-.96z"/><path id="24ypj" d="M373.46 980.1v-7.32a9.2 9.2 0 0 0-2.73-6.53 9.29 9.29 0 0 0-6.57-2.69h-49.02c-2.46 0-4.83.96-6.57 2.69a9.2 9.2 0 0 0-2.73 6.53v26.9a9.2 9.2 0 0 0 2.7 6.58 9.29 9.29 0 0 0 6.6 2.7h49.02a9.24 9.24 0 0 0 9.27-9.2v-9.06"/><path id="24ypk" d="M354.87 985.43a5.06 5.06 0 0 0 5.07 5.04h11.83a3.59 3.59 0 0 0 3.39-3.77v-2.55a3.59 3.59 0 0 0-3.39-3.77h-11.83a5.06 5.06 0 0 0-5.07 5.05z"/><path id="24ypl" d="M360.2 988.7a3.37 3.37 0 1 1 2.86-6.12 3.37 3.37 0 0 1-2.85 6.11z"/><path id="24ypm" d="M305.85 971.97h67.62"/><path id="24ypn" d="M305.85 998.88h67.62"/></defs><g><g transform="translate(-305 -936)"><g><use fill="#fff" fill-opacity="0" stroke="#13d4c8" stroke-linecap="round" stroke-miterlimit="50" stroke-width="1.68" xlink:href="#24ypa"/></g><g><use fill="#fff" fill-opacity="0" stroke="#13d4c8" stroke-linecap="round" stroke-miterlimit="50" stroke-width="1.68" xlink:href="#24ypb"/></g><g><use fill="#fff" fill-opacity="0" stroke="#13d4c8" stroke-miterlimit="50" stroke-width="1.68" xlink:href="#24ypc"/></g><g><use fill="#fff" fill-opacity="0" stroke="#13d4c8" stroke-miterlimit="50" stroke-width="1.68" xlink:href="#24ypd"/></g><g><use fill="#fff" fill-opacity="0" stroke="#13d4c8" stroke-miterlimit="50" stroke-width="1.68" xlink:href="#24ype"/></g><g><use fill="#fff" fill-opacity="0" stroke="#13d4c8" stroke-miterlimit="50" stroke-width="1.68" xlink:href="#24ypf"/></g><g><use fill="#fff" fill-opacity="0" stroke="#13d4c8" stroke-miterlimit="50" stroke-width="1.68" xlink:href="#24ypg"/></g><g><use fill="#fff" fill-opacity="0" stroke="#13d4c8" stroke-miterlimit="50" stroke-width="1.68" xlink:href="#24yph"/></g><g><use fill="#fff" fill-opacity="0" stroke="#13d4c8" stroke-miterlimit="50" stroke-width="1.68" xlink:href="#24ypi"/></g><g><use fill="#fff" fill-opacity="0" stroke="#13d4c8" stroke-linecap="round" stroke-linejoin="round" stroke-miterlimit="50" stroke-width="1.68" xlink:href="#24ypj"/></g><g><use fill="#fff" fill-opacity="0" stroke="#13d4c8" stroke-miterlimit="50" stroke-width="1.68" xlink:href="#24ypk"/></g><g><use fill="#fff" fill-opacity="0" stroke="#13d4c8" stroke-miterlimit="50" stroke-width="1.68" xlink:href="#24ypl"/></g><g><use fill="#fff" xlink:href="#24ypm"/><use fill="#fff" fill-opacity="0" stroke="#13d4c8" stroke-linecap="round" stroke-miterlimit="50" stroke-width="1.68" xlink:href="#24ypm"/></g><g><use fill="#fff" xlink:href="#24ypn"/><use fill="#fff" fill-opacity="0" stroke="#13d4c8" stroke-linecap="round" stroke-miterlimit="50" stroke-width="1.68" xlink:href="#24ypn"/></g></g></g></svg>