<svg xmlns="http://www.w3.org/2000/svg" xmlns:xlink="http://www.w3.org/1999/xlink" width="73" height="71" viewBox="0 0 73 71"><defs><path id="v4bca" d="M666.57 987.35c1.9 0 3.43 1.55 3.43 3.46v14.72a2.42 2.42 0 0 1-2.2 2.58h-5.89a2.42 2.42 0 0 1-2.2-2.58v-14.72a3.45 3.45 0 0 1 3.43-3.46z"/><path id="v4bcb" d="M682 975.23c1.9 0 3.43 1.55 3.43 3.46v26.84a2.42 2.42 0 0 1-2.2 2.59h-5.89a2.42 2.42 0 0 1-2.2-2.59V978.7a3.45 3.45 0 0 1 3.43-3.46z"/><path id="v4bcc" d="M697.43 963.11c1.9 0 3.43 1.55 3.43 3.46v38.97a2.43 2.43 0 0 1-2.21 2.6h-5.86a2.43 2.43 0 0 1-2.21-2.6v-38.97a3.45 3.45 0 0 1 3.42-3.46z"/><path id="v4bcd" d="M712.86 945.79c1.9 0 3.43 1.55 3.43 3.46v55.28c0 2-1 3.6-2.22 3.6h-5.86c-1.22 0-2.21-1.6-2.21-3.6v-55.28a3.45 3.45 0 0 1 3.43-3.46z"/><path id="v4bce" d="M659.71 967.44a51.37 51.37 0 0 0 45.9-28.42"/><path id="v4bcf" d="M702.25 939.73l2.9-.9a.6.6 0 0 1 .77.42l.8 2.87"/><path id="v4bcg" d="M652.86 940.53v67.6h70.29"/></defs><g><g transform="translate(-651 -938)"><g><use fill="#fff" fill-opacity="0" stroke="#13d4c8" stroke-miterlimit="50" stroke-width="1.73" xlink:href="#v4bca"/></g><g><use fill="#fff" fill-opacity="0" stroke="#13d4c8" stroke-miterlimit="50" stroke-width="1.73" xlink:href="#v4bcb"/></g><g><use fill="#fff" fill-opacity="0" stroke="#13d4c8" stroke-miterlimit="50" stroke-width="1.73" xlink:href="#v4bcc"/></g><g><use fill="#fff" fill-opacity="0" stroke="#13d4c8" stroke-miterlimit="50" stroke-width="1.73" xlink:href="#v4bcd"/></g><g><use fill="#fff" fill-opacity="0" stroke="#13d4c8" stroke-linecap="round" stroke-miterlimit="50" stroke-width="1.73" xlink:href="#v4bce"/></g><g><use fill="#fff" fill-opacity="0" stroke="#13d4c8" stroke-linecap="round" stroke-miterlimit="50" stroke-width="1.73" xlink:href="#v4bcf"/></g><g><use fill="#fff" fill-opacity="0" stroke="#13d4c8" stroke-linecap="round" stroke-miterlimit="50" stroke-width="1.73" xlink:href="#v4bcg"/></g></g></g></svg>