<svg xmlns="http://www.w3.org/2000/svg" xmlns:xlink="http://www.w3.org/1999/xlink" width="144" height="34" viewBox="0 0 144 34"><defs><path id="6mdya" d="M230.92 56.81c-1.47 0-2.66 1.3-2.66 2.92V62c0 1.6 1.2 2.91 2.66 2.91 1.47 0 2.67-1.3 2.67-2.91v-2.27c0-1.62-1.2-2.92-2.67-2.92z"/><path id="6mdyb" d="M256 41.19a2.7 2.7 0 0 0-2.64 2.76v1.6a1.5 1.5 0 0 1-1.48 1.51 1.5 1.5 0 0 1-1.5-1.51v-2.21a2.73 2.73 0 0 0-2.7-2.74 2.73 2.73 0 0 0-2.72 2.74v2.21a1.5 1.5 0 0 1-1.47 1.51 1.5 1.5 0 0 1-1.47-1.51V39.76c0-1.6-1.21-2.9-2.7-2.9-1.5 0-2.72 1.3-2.72 2.9V45.55c0 .83-.64 1.51-1.43 1.51-.8 0-1.44-.68-1.44-1.51V35.13c0-1.56-1.19-2.82-2.66-2.82a2.74 2.74 0 0 0-2.66 2.82v10.42c0 .84-.64 1.51-1.43 1.51-.79 0-1.43-.68-1.43-1.51v-1.47c0-1.6-1.2-2.9-2.67-2.9s-2.67 1.3-2.67 2.9v8.69c0 1.6 1.2 2.89 2.67 2.89 1.23 0 2.26-.9 2.57-2.12v-2.33c0-.84.66-1.52 1.48-1.52.81 0 1.48.68 1.48 1.52v1.4c0 1.55 1.19 2.81 2.66 2.81a2.74 2.74 0 0 0 2.66-2.82v-1.5c0-.84.64-1.52 1.44-1.52.79 0 1.43.68 1.43 1.52v5.99c0 1.6 1.21 2.89 2.71 2.89s2.71-1.3 2.71-2.89V51.1c0-.84.66-1.52 1.47-1.52.8 0 1.47.68 1.47 1.52v10.8a2.73 2.73 0 0 0 2.71 2.74c1.5 0 2.72-1.22 2.72-2.74V51.1c0-.84.66-1.52 1.48-1.52.83 0 1.5.68 1.5 1.52V52.9a2.7 2.7 0 0 0 2.63 2.76 2.7 2.7 0 0 0 2.64-2.76v-8.95a2.7 2.7 0 0 0-2.64-2.76z"/><path id="6mdyc" d="M247.74 31.22c-1.47 0-2.66 1.3-2.66 2.92v2.27c0 1.6 1.2 2.91 2.66 2.91 1.47 0 2.67-1.3 2.67-2.91v-2.27c0-1.61-1.2-2.92-2.67-2.92z"/><path id="6mdyd" d="M279.84 41.7V44h-3.8v10.82h-2.3V43.99h-3.79V41.7z"/><path id="6mdye" d="M291.67 41.7c.74 0 1.37.1 1.9.32.52.21.95.5 1.3.86.33.35.59.77.75 1.25a4.67 4.67 0 0 1 .08 2.73c-.1.4-.26.79-.48 1.15a3.56 3.56 0 0 1-2.12 1.56l3.03 5.25h-2.53l-2.97-5.07h-3.39c-.22 0-.33.1-.33.33v4.74h-2.27v-5.2c0-.73.16-1.26.48-1.58.32-.33.84-.49 1.56-.49h5.07a2 2 0 0 0 .83-.16 1.53 1.53 0 0 0 .88-.99c.07-.22.1-.44.1-.68 0-.46-.14-.87-.43-1.21-.29-.34-.75-.52-1.38-.52h-7.13V41.7h7.05z"/><path id="6mdyf" d="M302.39 54.81h-2.51l4.57-11.66c.24-.62.59-1.06 1.03-1.31a3.41 3.41 0 0 1 1.7-.38c.69 0 1.25.13 1.7.38.44.25.77.69 1 1.31l4.4 11.66h-2.53l-3.95-10.55c-.11-.3-.33-.45-.63-.45-.31 0-.53.15-.66.45z"/><path id="6mdyg" d="M321.16 52.3c0 .15.09.23.25.23h3.15c1.26 0 2.17-.34 2.74-1.01.56-.68.84-1.77.84-3.27s-.28-2.59-.84-3.26c-.55-.66-1.47-1-2.74-1h-3.15c-.16 0-.25.08-.25.24zm3.4-10.6c1.91 0 3.37.54 4.36 1.61 1 1.08 1.5 2.73 1.5 4.96 0 2.21-.5 3.86-1.5 4.93-1 1.08-2.45 1.62-4.36 1.62h-4.6c-.71 0-1.07-.36-1.07-1.07V42.77c0-.71.36-1.07 1.08-1.07z"/><path id="6mdyh" d="M353.24 41.7l3.64 5.62 3.68-5.62h2.7l-5.24 7.46v5.66h-2.3v-5.66l-5.24-7.46z"/><path id="6mdyi" d="M341.34 43.48c-2.2 0-2.58 0-2.58 1.72v1.78h6.53v1.85h-6.53v2.02c0 1.73.37 1.72 2.58 1.72h4.26v2.19c-1.16.04-3.08.09-4.19.09-2.8 0-5.12-.13-5.12-3.2V44.4c0-3.08 2.31-3.21 5.12-3.21 1.11 0 3.03.05 4.19.1v2.18h-4.26z"/></defs><g><g transform="translate(-220 -31)"><g><g><use fill="#fff" xlink:href="#6mdya"/></g><g><use fill="#fff" xlink:href="#6mdyb"/></g><g><use fill="#fff" xlink:href="#6mdyc"/></g></g><g><g><use fill="#fff" xlink:href="#6mdyd"/></g><g><use fill="#fff" xlink:href="#6mdye"/></g><g><use fill="#fff" xlink:href="#6mdyf"/></g><g><use fill="#fff" xlink:href="#6mdyg"/></g><g><use fill="#fff" xlink:href="#6mdyh"/></g><g><use fill="#fff" xlink:href="#6mdyi"/></g></g></g></g></svg>